<svg width="448" height="197" viewBox="0 0 448 197" fill="none" xmlns="http://www.w3.org/2000/svg">
<path d="M0.265625 69H16.0625C19.3438 68.9688 22.3906 68.5781 25.2031 67.8281C28.0469 67.0781 30.5938 66 32.8438 64.5938C34.9688 63.25 36.8906 61.625 38.6094 59.7188C40.3281 57.8125 41.75 55.6875 42.875 53.3438C43.9688 51.0938 44.7969 48.625 45.3594 45.9375C45.9531 43.25 46.25 40.4062 46.25 37.4062V32.3906C46.2188 29.2656 45.8906 26.3281 45.2656 23.5781C44.6719 20.8281 43.7969 18.2969 42.6406 15.9844C41.3594 13.2656 39.6406 10.875 37.4844 8.8125C35.3594 6.71875 32.9062 5.03125 30.125 3.75C28.125 2.8125 25.9375 2.09375 23.5625 1.59375C21.2188 1.0625 18.7188 0.78125 16.0625 0.75H0.265625V69ZM9.07812 7.875H16.0625C18.2188 7.90625 20.2031 8.15625 22.0156 8.625C23.8281 9.0625 25.4688 9.6875 26.9375 10.5C29 11.5938 30.7344 13.0312 32.1406 14.8125C33.5781 16.5625 34.7188 18.5312 35.5625 20.7188C36.2188 22.4062 36.7031 24.2344 37.0156 26.2031C37.3594 28.1406 37.5469 30.1719 37.5781 32.2969V37.4062C37.5469 39.5 37.375 41.5156 37.0625 43.4531C36.75 45.3594 36.2812 47.1406 35.6562 48.7969C34.9375 50.8281 33.9531 52.6719 32.7031 54.3281C31.4844 55.9531 30.0312 57.3281 28.3438 58.4531C26.75 59.5469 24.9219 60.3906 22.8594 60.9844C20.8281 61.5781 18.5625 61.8906 16.0625 61.9219H9.07812V7.875ZM91.3906 51.3281L96.7812 69H105.406L83.75 0.75H76.4844L54.4531 69H63.125L68.6094 51.3281H91.3906ZM70.9531 43.7812L80.0938 14.1562L89.0938 43.7812H70.9531ZM125.984 0.75H115.25V69H123.688V41.7656L122.984 14.25L134.562 50.0156H139.531L152.141 13.2656L151.438 41.7656V69H159.875V0.75H149.094L137.094 34.875L125.984 0.75ZM174.125 0.75V8.29688H190.109V61.5H174.125V69H215.375V61.5H199.016V8.29688H215.375V0.75H174.125ZM264.359 51.3281L269.75 69H278.375L256.719 0.75H249.453L227.422 69H236.094L241.578 51.3281H264.359ZM243.922 43.7812L253.062 14.1562L262.062 43.7812H243.922ZM332.188 69V0.75H323.422L323.281 51.6562L296.797 0.75H287.984V69H296.75L296.891 18L323.375 69H332.188ZM10.9531 188.641V127.75H2.28125V196H44.3281V188.641H10.9531ZM103.203 165.812V158.031C103.172 155.594 102.953 153.125 102.547 150.625C102.172 148.125 101.578 145.719 100.766 143.406C99.9219 141.094 98.8594 138.938 97.5781 136.938C96.3281 134.906 94.8281 133.141 93.0781 131.641C91.3281 130.141 89.3125 128.969 87.0312 128.125C84.75 127.25 82.2031 126.812 79.3906 126.812C76.5781 126.812 74.0312 127.25 71.75 128.125C69.5 128.969 67.5 130.141 65.75 131.641C64 133.172 62.4844 134.953 61.2031 136.984C59.9531 138.984 58.9219 141.141 58.1094 143.453C57.2656 145.766 56.6406 148.172 56.2344 150.672C55.8594 153.141 55.6562 155.594 55.625 158.031V165.812C55.6562 168.25 55.875 170.703 56.2812 173.172C56.6875 175.641 57.3125 178.031 58.1562 180.344C58.9688 182.656 60.0156 184.828 61.2969 186.859C62.5781 188.859 64.0938 190.609 65.8438 192.109C67.5938 193.609 69.5938 194.797 71.8438 195.672C74.125 196.516 76.6719 196.938 79.4844 196.938C82.2969 196.938 84.8281 196.516 87.0781 195.672C89.3594 194.797 91.375 193.609 93.125 192.109C94.875 190.609 96.375 188.859 97.625 186.859C98.9062 184.859 99.9531 182.703 100.766 180.391C101.578 178.078 102.172 175.688 102.547 173.219C102.953 170.719 103.172 168.25 103.203 165.812ZM94.625 157.938V165.812C94.5938 167.438 94.4844 169.141 94.2969 170.922C94.1406 172.703 93.8438 174.453 93.4062 176.172C92.9375 177.922 92.3281 179.594 91.5781 181.188C90.8594 182.75 89.9531 184.125 88.8594 185.312C87.7344 186.531 86.3906 187.5 84.8281 188.219C83.2969 188.938 81.5156 189.297 79.4844 189.297C77.4531 189.297 75.6719 188.938 74.1406 188.219C72.6094 187.5 71.2812 186.531 70.1562 185.312C69.0312 184.125 68.0938 182.734 67.3438 181.141C66.5938 179.547 65.9844 177.875 65.5156 176.125C65.0469 174.406 64.7031 172.656 64.4844 170.875C64.2969 169.094 64.1875 167.406 64.1562 165.812V157.938C64.1875 156.344 64.2969 154.672 64.4844 152.922C64.7031 151.141 65.0469 149.375 65.5156 147.625C65.9531 145.906 66.5469 144.266 67.2969 142.703C68.0469 141.109 68.9844 139.703 70.1094 138.484C71.2344 137.297 72.5625 136.344 74.0938 135.625C75.625 134.906 77.3906 134.547 79.3906 134.547C81.4219 134.547 83.2031 134.906 84.7344 135.625C86.2656 136.312 87.5938 137.25 88.7188 138.438C89.8438 139.656 90.7812 141.062 91.5312 142.656C92.2812 144.219 92.8906 145.859 93.3594 147.578C93.7969 149.328 94.1094 151.094 94.2969 152.875C94.4844 154.625 94.5938 156.312 94.625 157.938ZM159.312 127.75H150.922L150.781 173.969C150.719 176 150.391 177.953 149.797 179.828C149.203 181.703 148.344 183.359 147.219 184.797C146.062 186.266 144.641 187.438 142.953 188.312C141.266 189.156 139.312 189.578 137.094 189.578C134.875 189.578 132.906 189.141 131.188 188.266C129.5 187.391 128.094 186.234 126.969 184.797C125.812 183.359 124.922 181.703 124.297 179.828C123.703 177.953 123.391 176 123.359 173.969L123.172 127.75H114.922L114.828 173.969C114.859 177.156 115.422 180.156 116.516 182.969C117.609 185.75 119.125 188.172 121.062 190.234C123 192.328 125.328 193.969 128.047 195.156C130.766 196.344 133.781 196.938 137.094 196.938C140.344 196.938 143.328 196.344 146.047 195.156C148.766 193.938 151.109 192.281 153.078 190.188C155.047 188.125 156.594 185.703 157.719 182.922C158.844 180.141 159.406 177.156 159.406 173.969L159.312 127.75ZM209.844 178.75C209.844 180.625 209.438 182.25 208.625 183.625C207.812 184.969 206.766 186.078 205.484 186.953C204.203 187.859 202.734 188.531 201.078 188.969C199.453 189.375 197.797 189.578 196.109 189.578C193.984 189.578 192.016 189.297 190.203 188.734C188.422 188.141 186.844 187.266 185.469 186.109C184.094 184.984 182.969 183.609 182.094 181.984C181.219 180.328 180.641 178.438 180.359 176.312H171.5C171.594 179.25 172.234 181.922 173.422 184.328C174.641 186.703 176.281 188.781 178.344 190.562C180.656 192.625 183.375 194.203 186.5 195.297C189.656 196.391 192.859 196.938 196.109 196.938C198.828 196.938 201.547 196.562 204.266 195.812C206.984 195.031 209.422 193.875 211.578 192.344C213.734 190.844 215.484 188.953 216.828 186.672C218.203 184.391 218.891 181.719 218.891 178.656C218.891 175.625 218.25 172.953 216.969 170.641C215.719 168.328 214.062 166.375 212 164.781C209.906 163.062 207.594 161.656 205.062 160.562C202.531 159.438 200 158.484 197.469 157.703C195.938 157.234 194.297 156.688 192.547 156.062C190.828 155.438 189.234 154.656 187.766 153.719C186.266 152.781 185.031 151.641 184.062 150.297C183.094 148.922 182.594 147.25 182.562 145.281C182.562 143.469 182.922 141.875 183.641 140.5C184.391 139.125 185.391 137.969 186.641 137.031C187.859 136.094 189.25 135.391 190.812 134.922C192.406 134.453 194.031 134.219 195.688 134.219C197.75 134.219 199.594 134.547 201.219 135.203C202.875 135.828 204.297 136.719 205.484 137.875C206.672 139.031 207.625 140.422 208.344 142.047C209.062 143.641 209.547 145.422 209.797 147.391H218.703C218.641 144.266 217.969 141.438 216.688 138.906C215.406 136.375 213.703 134.219 211.578 132.438C209.453 130.656 207.016 129.281 204.266 128.312C201.516 127.312 198.656 126.812 195.688 126.812C193 126.812 190.328 127.234 187.672 128.078C185.016 128.891 182.641 130.094 180.547 131.688C178.453 133.281 176.75 135.234 175.438 137.547C174.156 139.859 173.516 142.484 173.516 145.422C173.516 148.359 174.156 150.922 175.438 153.109C176.75 155.266 178.438 157.141 180.5 158.734C182.531 160.297 184.781 161.641 187.25 162.766C189.75 163.859 192.203 164.797 194.609 165.578C196.266 166.109 197.984 166.703 199.766 167.359C201.578 168.016 203.234 168.828 204.734 169.797C206.234 170.797 207.453 172.016 208.391 173.453C209.359 174.891 209.844 176.656 209.844 178.75ZM277.812 135.156V127.75H227.188V135.156H248.281V196H256.719V135.156H277.812ZM326.984 164.453V157.094H298.484V135.156H331.297V127.75H289.812V196H331.719V188.641H298.484V164.453H326.984ZM379.672 178.328L385.062 196H393.688L372.031 127.75H364.766L342.734 196H351.406L356.891 178.328H379.672ZM359.234 170.781L368.375 141.156L377.375 170.781H359.234ZM447.594 127.75H439.203L439.062 173.969C439 176 438.672 177.953 438.078 179.828C437.484 181.703 436.625 183.359 435.5 184.797C434.344 186.266 432.922 187.438 431.234 188.312C429.547 189.156 427.594 189.578 425.375 189.578C423.156 189.578 421.188 189.141 419.469 188.266C417.781 187.391 416.375 186.234 415.25 184.797C414.094 183.359 413.203 181.703 412.578 179.828C411.984 177.953 411.672 176 411.641 173.969L411.453 127.75H403.203L403.109 173.969C403.141 177.156 403.703 180.156 404.797 182.969C405.891 185.75 407.406 188.172 409.344 190.234C411.281 192.328 413.609 193.969 416.328 195.156C419.047 196.344 422.062 196.938 425.375 196.938C428.625 196.938 431.609 196.344 434.328 195.156C437.047 193.938 439.391 192.281 441.359 190.188C443.328 188.125 444.875 185.703 446 182.922C447.125 180.141 447.688 177.156 447.688 173.969L447.594 127.75Z" fill="white"/>
</svg>
