<svg width="866" height="85" viewBox="0 0 866 85" fill="none" xmlns="http://www.w3.org/2000/svg">
<g filter="url(#filter0_d)">
<path d="M7.26562 73H23.0625C26.3438 72.9688 29.3906 72.5781 32.2031 71.8281C35.0469 71.0781 37.5938 70 39.8438 68.5938C41.9688 67.25 43.8906 65.625 45.6094 63.7188C47.3281 61.8125 48.75 59.6875 49.875 57.3438C50.9688 55.0938 51.7969 52.625 52.3594 49.9375C52.9531 47.25 53.25 44.4062 53.25 41.4062V36.3906C53.2188 33.2656 52.8906 30.3281 52.2656 27.5781C51.6719 24.8281 50.7969 22.2969 49.6406 19.9844C48.3594 17.2656 46.6406 14.875 44.4844 12.8125C42.3594 10.7188 39.9062 9.03125 37.125 7.75C35.125 6.8125 32.9375 6.09375 30.5625 5.59375C28.2188 5.0625 25.7188 4.78125 23.0625 4.75H7.26562V73ZM16.0781 11.875H23.0625C25.2188 11.9062 27.2031 12.1562 29.0156 12.625C30.8281 13.0625 32.4688 13.6875 33.9375 14.5C36 15.5938 37.7344 17.0312 39.1406 18.8125C40.5781 20.5625 41.7188 22.5312 42.5625 24.7188C43.2188 26.4062 43.7031 28.2344 44.0156 30.2031C44.3594 32.1406 44.5469 34.1719 44.5781 36.2969V41.4062C44.5469 43.5 44.375 45.5156 44.0625 47.4531C43.75 49.3594 43.2812 51.1406 42.6562 52.7969C41.9375 54.8281 40.9531 56.6719 39.7031 58.3281C38.4844 59.9531 37.0312 61.3281 35.3438 62.4531C33.75 63.5469 31.9219 64.3906 29.8594 64.9844C27.8281 65.5781 25.5625 65.8906 23.0625 65.9219H16.0781V11.875ZM98.3906 55.3281L103.781 73H112.406L90.75 4.75H83.4844L61.4531 73H70.125L75.6094 55.3281H98.3906ZM77.9531 47.7812L87.0938 18.1562L96.0938 47.7812H77.9531ZM132.984 4.75H122.25V73H130.688V45.7656L129.984 18.25L141.562 54.0156H146.531L159.141 17.2656L158.438 45.7656V73H166.875V4.75H156.094L144.094 38.875L132.984 4.75ZM181.125 4.75V12.2969H197.109V65.5H181.125V73H222.375V65.5H206.016V12.2969H222.375V4.75H181.125ZM271.359 55.3281L276.75 73H285.375L263.719 4.75H256.453L234.422 73H243.094L248.578 55.3281H271.359ZM250.922 47.7812L260.062 18.1562L269.062 47.7812H250.922ZM339.188 73V4.75H330.422L330.281 55.6562L303.797 4.75H294.984V73H303.75L303.891 22L330.375 73H339.188ZM421.547 65.6406V4.75H412.875V73H454.922V65.6406H421.547ZM513.797 42.8125V35.0312C513.766 32.5938 513.547 30.125 513.141 27.625C512.766 25.125 512.172 22.7188 511.359 20.4062C510.516 18.0938 509.453 15.9375 508.172 13.9375C506.922 11.9062 505.422 10.1406 503.672 8.64062C501.922 7.14062 499.906 5.96875 497.625 5.125C495.344 4.25 492.797 3.8125 489.984 3.8125C487.172 3.8125 484.625 4.25 482.344 5.125C480.094 5.96875 478.094 7.14062 476.344 8.64062C474.594 10.1719 473.078 11.9531 471.797 13.9844C470.547 15.9844 469.516 18.1406 468.703 20.4531C467.859 22.7656 467.234 25.1719 466.828 27.6719C466.453 30.1406 466.25 32.5938 466.219 35.0312V42.8125C466.25 45.25 466.469 47.7031 466.875 50.1719C467.281 52.6406 467.906 55.0312 468.75 57.3438C469.562 59.6562 470.609 61.8281 471.891 63.8594C473.172 65.8594 474.688 67.6094 476.438 69.1094C478.188 70.6094 480.188 71.7969 482.438 72.6719C484.719 73.5156 487.266 73.9375 490.078 73.9375C492.891 73.9375 495.422 73.5156 497.672 72.6719C499.953 71.7969 501.969 70.6094 503.719 69.1094C505.469 67.6094 506.969 65.8594 508.219 63.8594C509.5 61.8594 510.547 59.7031 511.359 57.3906C512.172 55.0781 512.766 52.6875 513.141 50.2188C513.547 47.7188 513.766 45.25 513.797 42.8125ZM505.219 34.9375V42.8125C505.188 44.4375 505.078 46.1406 504.891 47.9219C504.734 49.7031 504.438 51.4531 504 53.1719C503.531 54.9219 502.922 56.5938 502.172 58.1875C501.453 59.75 500.547 61.125 499.453 62.3125C498.328 63.5312 496.984 64.5 495.422 65.2188C493.891 65.9375 492.109 66.2969 490.078 66.2969C488.047 66.2969 486.266 65.9375 484.734 65.2188C483.203 64.5 481.875 63.5312 480.75 62.3125C479.625 61.125 478.688 59.7344 477.938 58.1406C477.188 56.5469 476.578 54.875 476.109 53.125C475.641 51.4062 475.297 49.6562 475.078 47.875C474.891 46.0938 474.781 44.4062 474.75 42.8125V34.9375C474.781 33.3438 474.891 31.6719 475.078 29.9219C475.297 28.1406 475.641 26.375 476.109 24.625C476.547 22.9062 477.141 21.2656 477.891 19.7031C478.641 18.1094 479.578 16.7031 480.703 15.4844C481.828 14.2969 483.156 13.3438 484.688 12.625C486.219 11.9062 487.984 11.5469 489.984 11.5469C492.016 11.5469 493.797 11.9062 495.328 12.625C496.859 13.3125 498.188 14.25 499.312 15.4375C500.438 16.6562 501.375 18.0625 502.125 19.6562C502.875 21.2188 503.484 22.8594 503.953 24.5781C504.391 26.3281 504.703 28.0938 504.891 29.875C505.078 31.625 505.188 33.3125 505.219 34.9375ZM569.906 4.75H561.516L561.375 50.9688C561.312 53 560.984 54.9531 560.391 56.8281C559.797 58.7031 558.938 60.3594 557.812 61.7969C556.656 63.2656 555.234 64.4375 553.547 65.3125C551.859 66.1562 549.906 66.5781 547.688 66.5781C545.469 66.5781 543.5 66.1406 541.781 65.2656C540.094 64.3906 538.688 63.2344 537.562 61.7969C536.406 60.3594 535.516 58.7031 534.891 56.8281C534.297 54.9531 533.984 53 533.953 50.9688L533.766 4.75H525.516L525.422 50.9688C525.453 54.1562 526.016 57.1562 527.109 59.9688C528.203 62.75 529.719 65.1719 531.656 67.2344C533.594 69.3281 535.922 70.9688 538.641 72.1562C541.359 73.3438 544.375 73.9375 547.688 73.9375C550.938 73.9375 553.922 73.3438 556.641 72.1562C559.359 70.9375 561.703 69.2812 563.672 67.1875C565.641 65.125 567.188 62.7031 568.312 59.9219C569.438 57.1406 570 54.1562 570 50.9688L569.906 4.75ZM620.438 55.75C620.438 57.625 620.031 59.25 619.219 60.625C618.406 61.9688 617.359 63.0781 616.078 63.9531C614.797 64.8594 613.328 65.5312 611.672 65.9688C610.047 66.375 608.391 66.5781 606.703 66.5781C604.578 66.5781 602.609 66.2969 600.797 65.7344C599.016 65.1406 597.438 64.2656 596.062 63.1094C594.688 61.9844 593.562 60.6094 592.688 58.9844C591.812 57.3281 591.234 55.4375 590.953 53.3125H582.094C582.188 56.25 582.828 58.9219 584.016 61.3281C585.234 63.7031 586.875 65.7812 588.938 67.5625C591.25 69.625 593.969 71.2031 597.094 72.2969C600.25 73.3906 603.453 73.9375 606.703 73.9375C609.422 73.9375 612.141 73.5625 614.859 72.8125C617.578 72.0312 620.016 70.875 622.172 69.3438C624.328 67.8438 626.078 65.9531 627.422 63.6719C628.797 61.3906 629.484 58.7188 629.484 55.6562C629.484 52.625 628.844 49.9531 627.562 47.6406C626.312 45.3281 624.656 43.375 622.594 41.7812C620.5 40.0625 618.188 38.6562 615.656 37.5625C613.125 36.4375 610.594 35.4844 608.062 34.7031C606.531 34.2344 604.891 33.6875 603.141 33.0625C601.422 32.4375 599.828 31.6562 598.359 30.7188C596.859 29.7812 595.625 28.6406 594.656 27.2969C593.688 25.9219 593.188 24.25 593.156 22.2812C593.156 20.4688 593.516 18.875 594.234 17.5C594.984 16.125 595.984 14.9688 597.234 14.0312C598.453 13.0938 599.844 12.3906 601.406 11.9219C603 11.4531 604.625 11.2188 606.281 11.2188C608.344 11.2188 610.188 11.5469 611.812 12.2031C613.469 12.8281 614.891 13.7188 616.078 14.875C617.266 16.0312 618.219 17.4219 618.938 19.0469C619.656 20.6406 620.141 22.4219 620.391 24.3906H629.297C629.234 21.2656 628.562 18.4375 627.281 15.9062C626 13.375 624.297 11.2188 622.172 9.4375C620.047 7.65625 617.609 6.28125 614.859 5.3125C612.109 4.3125 609.25 3.8125 606.281 3.8125C603.594 3.8125 600.922 4.23438 598.266 5.07812C595.609 5.89062 593.234 7.09375 591.141 8.6875C589.047 10.2812 587.344 12.2344 586.031 14.5469C584.75 16.8594 584.109 19.4844 584.109 22.4219C584.109 25.3594 584.75 27.9219 586.031 30.1094C587.344 32.2656 589.031 34.1406 591.094 35.7344C593.125 37.2969 595.375 38.6406 597.844 39.7656C600.344 40.8594 602.797 41.7969 605.203 42.5781C606.859 43.1094 608.578 43.7031 610.359 44.3594C612.172 45.0156 613.828 45.8281 615.328 46.7969C616.828 47.7969 618.047 49.0156 618.984 50.4531C619.953 51.8906 620.438 53.6562 620.438 55.75ZM688.406 12.1562V4.75H637.781V12.1562H658.875V73H667.312V12.1562H688.406ZM737.578 41.4531V34.0938H709.078V12.1562H741.891V4.75H700.406V73H742.312V65.6406H709.078V41.4531H737.578ZM790.266 55.3281L795.656 73H804.281L782.625 4.75H775.359L753.328 73H762L767.484 55.3281H790.266ZM769.828 47.7812L778.969 18.1562L787.969 47.7812H769.828ZM858.188 4.75H849.797L849.656 50.9688C849.594 53 849.266 54.9531 848.672 56.8281C848.078 58.7031 847.219 60.3594 846.094 61.7969C844.938 63.2656 843.516 64.4375 841.828 65.3125C840.141 66.1562 838.188 66.5781 835.969 66.5781C833.75 66.5781 831.781 66.1406 830.062 65.2656C828.375 64.3906 826.969 63.2344 825.844 61.7969C824.688 60.3594 823.797 58.7031 823.172 56.8281C822.578 54.9531 822.266 53 822.234 50.9688L822.047 4.75H813.797L813.703 50.9688C813.734 54.1562 814.297 57.1562 815.391 59.9688C816.484 62.75 818 65.1719 819.938 67.2344C821.875 69.3281 824.203 70.9688 826.922 72.1562C829.641 73.3438 832.656 73.9375 835.969 73.9375C839.219 73.9375 842.203 73.3438 844.922 72.1562C847.641 70.9375 849.984 69.2812 851.953 67.1875C853.922 65.125 855.469 62.7031 856.594 59.9219C857.719 57.1406 858.281 54.1562 858.281 50.9688L858.188 4.75Z" fill="white"/>
</g>
<defs>
<filter id="filter0_d" x="0.265625" y="0.8125" width="865.016" height="84.125" filterUnits="userSpaceOnUse" color-interpolation-filters="sRGB">
<feFlood flood-opacity="0" result="BackgroundImageFix"/>
<feColorMatrix in="SourceAlpha" type="matrix" values="0 0 0 0 0 0 0 0 0 0 0 0 0 0 0 0 0 0 127 0"/>
<feOffset dy="4"/>
<feGaussianBlur stdDeviation="3.5"/>
<feColorMatrix type="matrix" values="0 0 0 0 1 0 0 0 0 1 0 0 0 0 1 0 0 0 1 0"/>
<feBlend mode="normal" in2="BackgroundImageFix" result="effect1_dropShadow"/>
<feBlend mode="normal" in="SourceGraphic" in2="effect1_dropShadow" result="shape"/>
</filter>
</defs>
</svg>
